<svg xmlns="http://www.w3.org/2000/svg" xmlns:xlink="http://www.w3.org/1999/xlink" viewBox="0 0 778.71 190.86"><defs><style>.cls-1{fill:#fff;}.cls-2{clip-path:url(#clip-path);}</style><clipPath id="clip-path"><polygon class="cls-1" points="157.39 0 7.31 0 52.76 71.81 77.43 40.39 118.15 40.39 0 190.86 51.36 190.86 174.16 34.48 201.24 0 157.39 0"/></clipPath></defs><title>zaboo-logo_2</title><g id="Capa_2" data-name="Capa 2"><g id="Capa_1-2" data-name="Capa 1"><g id="Capa_1-2-2" data-name="Capa 1-2"><polygon class="cls-1" points="157.39 0 7.31 0 52.76 71.81 77.43 40.39 118.15 40.39 0 190.86 51.36 190.86 174.16 34.48 201.24 0 157.39 0"/><g class="cls-2"><rect class="cls-1" width="201.23" height="190.86"/></g><polygon class="cls-1" points="233.82 0 111.02 156.38 83.95 190.86 127.79 190.86 277.87 190.86 232.41 119.05 207.75 150.47 167.03 150.47 285.18 0 233.82 0"/><path class="cls-1" d="M400.12,59a9.44,9.44,0,0,1-3.36,7.29l-55.34,48.51h60.78v15H320.7a7.3,7.3,0,0,1-5.67-2.14,8,8,0,0,1-2-5.62,9.64,9.64,0,0,1,3.59-7.53L373.15,66H314.92V50.85h77.56a7,7,0,0,1,5.67,2.37,8.69,8.69,0,0,1,2,5.73"/><path class="cls-1" d="M433.58,129.8a45.13,45.13,0,0,1-11.23-1.16,18.17,18.17,0,0,1-7-3.3,11.39,11.39,0,0,1-3.65-5.21,21.33,21.33,0,0,1-1-6.89v-5.9a22.91,22.91,0,0,1,1-7,11.52,11.52,0,0,1,3.42-5.21,16.06,16.06,0,0,1,6.65-3.26,43.5,43.5,0,0,1,10.71-1.1h46.42V89.37q0-6-2.43-8t-8.23-2H451.06V67.06h17.11A50.83,50.83,0,0,1,481,68.44a21.78,21.78,0,0,1,8.63,4.22,16.55,16.55,0,0,1,4.92,7.17,30.63,30.63,0,0,1,1.56,10.36v15.28a42.12,42.12,0,0,1-1.3,11.46,15.4,15.4,0,0,1-4.63,7.53,19.47,19.47,0,0,1-8.8,4.11,65.67,65.67,0,0,1-13.82,1.22Zm45.27-28.36H434.29a7.63,7.63,0,0,0-4.74,1.3q-1.74,1.3-1.74,5v4.28q0,3.36,1.85,4.63a9.23,9.23,0,0,0,5.21,1.3h32.42a25.54,25.54,0,0,0,5.21-.46,7.76,7.76,0,0,0,3.59-1.67,7.35,7.35,0,0,0,2.09-3.42,19.23,19.23,0,0,0,.7-5.68Z"/><path class="cls-1" d="M538.93,129.8a60.87,60.87,0,0,1-14.47-1.45,20.94,20.94,0,0,1-9.26-4.63,17.38,17.38,0,0,1-4.92-8.34,47.49,47.49,0,0,1-1.45-12.68V46.79h17.25V67.06h34.85a61.48,61.48,0,0,1,14.59,1.45,20.94,20.94,0,0,1,9.26,4.63,17.41,17.41,0,0,1,4.92,8.39,48.23,48.23,0,0,1,1.45,12.71v8.47a47.58,47.58,0,0,1-1.45,12.68,17.38,17.38,0,0,1-4.92,8.34,20.94,20.94,0,0,1-9.26,4.63,61.48,61.48,0,0,1-14.59,1.45Zm35-35a30.71,30.71,0,0,0-.58-6.6,7.45,7.45,0,0,0-2.09-3.91,8.39,8.39,0,0,0-4.16-1.91,35.9,35.9,0,0,0-6.71-.52H526.08v20.49a28.49,28.49,0,0,0,.58,6.31,7.72,7.72,0,0,0,2.09,3.91,8.4,8.4,0,0,0,4.11,2,31.45,31.45,0,0,0,6.65.58h20.86a32.33,32.33,0,0,0,6.71-.58,8.47,8.47,0,0,0,4.16-2,7.74,7.74,0,0,0,2.09-3.91,29.22,29.22,0,0,0,.58-6.43Z"/><path class="cls-1" d="M633.76,129.8a60.87,60.87,0,0,1-14.47-1.45,20.94,20.94,0,0,1-9.26-4.63,17.37,17.37,0,0,1-4.92-8.34,47.49,47.49,0,0,1-1.45-12.68V94.24A48.17,48.17,0,0,1,605.1,81.5,17.39,17.39,0,0,1,610,73.11a21,21,0,0,1,9.26-4.63A60.89,60.89,0,0,1,633.75,67h21a61.48,61.48,0,0,1,14.59,1.45,20.63,20.63,0,0,1,9.26,4.69,17.77,17.77,0,0,1,4.92,8.47,48.23,48.23,0,0,1,1.45,12.73v8.34a47.58,47.58,0,0,1-1.45,12.68,17.38,17.38,0,0,1-4.92,8.34,20.94,20.94,0,0,1-9.26,4.63,61.48,61.48,0,0,1-14.59,1.45Zm33.89-35a27.44,27.44,0,0,0-.65-6.48,7.51,7.51,0,0,0-2.31-4,9.56,9.56,0,0,0-4.69-2,46.14,46.14,0,0,0-7.64-.52H636.06a45,45,0,0,0-7.59.52,9.48,9.48,0,0,0-4.63,2,7.49,7.49,0,0,0-2.31,4,27.37,27.37,0,0,0-.65,6.48v7.42a26.62,26.62,0,0,0,.65,6.43,7.46,7.46,0,0,0,2.31,3.91,9.86,9.86,0,0,0,4.63,2,40.54,40.54,0,0,0,7.59.58h16.29a41.52,41.52,0,0,0,7.64-.58,9.93,9.93,0,0,0,4.69-2,7.48,7.48,0,0,0,2.31-3.91,26.72,26.72,0,0,0,.65-6.43Z"/><path class="cls-1" d="M727.53,129.8a60.87,60.87,0,0,1-14.47-1.45,20.94,20.94,0,0,1-9.26-4.63,17.37,17.37,0,0,1-4.91-8.33,47.49,47.49,0,0,1-1.46-12.68V94.24a48.17,48.17,0,0,1,1.46-12.71,17.39,17.39,0,0,1,4.92-8.39,21,21,0,0,1,9.26-4.63,60.89,60.89,0,0,1,14.47-1.45h20.95a61.48,61.48,0,0,1,14.59,1.45,20.63,20.63,0,0,1,9.26,4.69,17.77,17.77,0,0,1,4.92,8.47A48.23,48.23,0,0,1,778.7,94.4v8.32a47.58,47.58,0,0,1-1.45,12.68,17.38,17.38,0,0,1-4.92,8.34,20.94,20.94,0,0,1-9.26,4.63,61.48,61.48,0,0,1-14.59,1.45Zm33.89-35a27.44,27.44,0,0,0-.65-6.48,7.51,7.51,0,0,0-2.31-4,9.56,9.56,0,0,0-4.69-2,46.14,46.14,0,0,0-7.64-.52H729.83a45,45,0,0,0-7.59.52,9.48,9.48,0,0,0-4.63,2,7.49,7.49,0,0,0-2.3,4,27.37,27.37,0,0,0-.65,6.48v7.4a26.62,26.62,0,0,0,.65,6.43,7.46,7.46,0,0,0,2.31,3.91,9.86,9.86,0,0,0,4.63,2,40.54,40.54,0,0,0,7.59.58h16.29a41.52,41.52,0,0,0,7.64-.58,9.93,9.93,0,0,0,4.69-2,7.48,7.48,0,0,0,2.31-3.91,26.72,26.72,0,0,0,.65-6.43Z"/></g></g></g></svg>