<svg xmlns="http://www.w3.org/2000/svg" xmlns:xlink="http://www.w3.org/1999/xlink" viewBox="0 0 714.46 463.57"><defs><style>.cls-1{fill:#534898;}.cls-2{clip-path:url(#clip-path);}.cls-3{clip-path:url(#clip-path-2);}.cls-4{fill:#028295;}</style><clipPath id="clip-path"><polygon class="cls-1" points="384.84 0 154.56 0 224.3 110.19 262.15 61.98 324.63 61.98 143.34 292.85 222.15 292.85 410.56 52.9 452.11 0 384.84 0"/></clipPath><clipPath id="clip-path-2"><polygon class="cls-1" points="502.11 0 313.69 239.94 272.15 292.85 339.42 292.85 569.69 292.85 499.95 182.66 462.1 230.87 399.62 230.87 580.91 0 502.11 0"/></clipPath></defs><title>LogoZaboo_1</title><g id="Capa_2" data-name="Capa 2"><g id="Capa_1-2" data-name="Capa 1"><polygon class="cls-1" points="384.84 0 154.56 0 224.3 110.19 262.15 61.98 324.63 61.98 143.34 292.85 222.15 292.85 410.56 52.9 452.11 0 384.84 0"/><g class="cls-2"><rect class="cls-1" x="143.34" width="308.76" height="292.85"/></g><polygon class="cls-1" points="502.11 0 313.69 239.94 272.15 292.85 339.42 292.85 569.69 292.85 499.95 182.66 462.1 230.87 399.62 230.87 580.91 0 502.11 0"/><g class="cls-3"><rect class="cls-1" x="272.15" width="308.76" height="292.85"/></g><path class="cls-4" d="M133.58,354.86a14.49,14.49,0,0,1-5.15,11.19L43.52,440.48h93.26v23.09H11.72q-5.69,0-8.7-3.29a12.22,12.22,0,0,1-3-8.62,14.79,14.79,0,0,1,5.51-11.55L92.19,365.7H2.84V342.42h119q5.68,0,8.7,3.64a13.33,13.33,0,0,1,3,8.79"/><path class="cls-4" d="M184.92,463.57a69.25,69.25,0,0,1-17.23-1.78,27.88,27.88,0,0,1-10.75-5.06,17.47,17.47,0,0,1-5.6-8,32.73,32.73,0,0,1-1.6-10.57v-9.06a35.16,35.16,0,0,1,1.51-10.75,17.67,17.67,0,0,1,5.24-8,24.64,24.64,0,0,1,10.21-5,66.75,66.75,0,0,1,16.43-1.69h71.23v-2.13q0-9.23-3.73-12.35T238,386.12H211.74V367.29H238a78,78,0,0,1,19.63,2.13,33.42,33.42,0,0,1,13.24,6.48,25.4,25.4,0,0,1,7.55,11,47,47,0,0,1,2.4,15.9v23.45a64.63,64.63,0,0,1-2,17.59,23.63,23.63,0,0,1-7.11,11.55q-5.06,4.44-13.5,6.31A100.76,100.76,0,0,1,237,463.57Zm69.46-43.52H186a11.7,11.7,0,0,0-7.28,2q-2.67,2-2.67,7.73v6.57q0,5.15,2.84,7.11t8,2h49.74a39.19,39.19,0,0,0,8-.71,11.91,11.91,0,0,0,5.51-2.57,11.27,11.27,0,0,0,3.2-5.24,29.51,29.51,0,0,0,1.07-8.71Z"/><path class="cls-4" d="M346.57,463.57q-13.32,0-22.2-2.22t-14.21-7.11a26.66,26.66,0,0,1-7.55-12.79A72.87,72.87,0,0,1,300.39,422v-85.8h26.47v31.09h53.47q13.5,0,22.38,2.22t14.21,7.11a26.71,26.71,0,0,1,7.55,12.88A74,74,0,0,1,426.69,409v13a73,73,0,0,1-2.22,19.45,26.67,26.67,0,0,1-7.55,12.79q-5.33,4.89-14.21,7.11t-22.38,2.22Zm53.65-53.65a47.12,47.12,0,0,0-.89-10.12,11.43,11.43,0,0,0-3.2-6,12.87,12.87,0,0,0-6.39-2.93,55.09,55.09,0,0,0-10.3-.8H326.85v31.44a43.71,43.71,0,0,0,.89,9.68,11.84,11.84,0,0,0,3.2,6,12.89,12.89,0,0,0,6.31,3.11,48.26,48.26,0,0,0,10.21.89h32a49.61,49.61,0,0,0,10.3-.89,13,13,0,0,0,6.39-3.11,11.88,11.88,0,0,0,3.2-6,44.83,44.83,0,0,0,.89-9.86Z"/><path class="cls-4" d="M492.06,463.57q-13.32,0-22.2-2.22t-14.21-7.11a26.65,26.65,0,0,1-7.55-12.79A72.87,72.87,0,0,1,445.87,422V409a73.91,73.91,0,0,1,2.22-19.54,26.69,26.69,0,0,1,7.55-12.88q5.33-4.88,14.21-7.11a93.42,93.42,0,0,1,22.2-2.22h32.15q13.5,0,22.38,2.22t14.21,7.19a27.27,27.27,0,0,1,7.55,13,74,74,0,0,1,2.22,19.54V422a73,73,0,0,1-2.22,19.45,26.67,26.67,0,0,1-7.55,12.79q-5.33,4.89-14.21,7.11t-22.38,2.22Zm52-53.65a42.1,42.1,0,0,0-1-9.95,11.53,11.53,0,0,0-3.55-6.13,14.67,14.67,0,0,0-7.2-3,70.79,70.79,0,0,0-11.72-.8h-25a69.11,69.11,0,0,0-11.64.8,14.55,14.55,0,0,0-7.1,3,11.5,11.5,0,0,0-3.55,6.13,42,42,0,0,0-1,9.95V421.3a40.85,40.85,0,0,0,1,9.86,11.44,11.44,0,0,0,3.55,6,15.13,15.13,0,0,0,7.1,3.11,62.2,62.2,0,0,0,11.64.89h25a63.71,63.71,0,0,0,11.72-.89,15.24,15.24,0,0,0,7.2-3.11,11.47,11.47,0,0,0,3.55-6,41,41,0,0,0,1-9.86Z"/><path class="cls-4" d="M635.94,463.57q-13.32,0-22.2-2.22t-14.21-7.11A26.65,26.65,0,0,1,592,441.46,72.87,72.87,0,0,1,589.76,422V409A73.91,73.91,0,0,1,592,389.5a26.69,26.69,0,0,1,7.55-12.88q5.33-4.88,14.21-7.11a93.42,93.42,0,0,1,22.2-2.22H668.1q13.5,0,22.38,2.22t14.21,7.19a27.27,27.27,0,0,1,7.55,13,74,74,0,0,1,2.22,19.54V422a73,73,0,0,1-2.22,19.45,26.67,26.67,0,0,1-7.55,12.79q-5.33,4.89-14.21,7.11t-22.38,2.22Zm52-53.65a42.1,42.1,0,0,0-1-9.95,11.53,11.53,0,0,0-3.55-6.13,14.67,14.67,0,0,0-7.2-3,70.79,70.79,0,0,0-11.72-.8h-25a69.11,69.11,0,0,0-11.64.8,14.55,14.55,0,0,0-7.1,3A11.5,11.5,0,0,0,617.2,400a42,42,0,0,0-1,9.95V421.3a40.85,40.85,0,0,0,1,9.86,11.44,11.44,0,0,0,3.55,6,15.13,15.13,0,0,0,7.1,3.11,62.2,62.2,0,0,0,11.64.89h25a63.71,63.71,0,0,0,11.72-.89,15.24,15.24,0,0,0,7.2-3.11,11.47,11.47,0,0,0,3.55-6,41,41,0,0,0,1-9.86Z"/></g></g></svg>